HIERARCHY
ROOT SpineBase
{
  OFFSET 0.000000 0.000000 0.000000
  CHANNELS 6 Xposition Yposition Zposition Zrotation Xrotation Yrotation
  JOINT SpineMid
  {
    OFFSET 0.000000 17.941891 0.000000
    CHANNELS 3 Zrotation Xrotation Yrotation
    JOINT SpineShoulder
    {
      OFFSET -0.143355 12.999166 -0.501381
      CHANNELS 3 Zrotation Xrotation Yrotation
      JOINT Neck
      {
        OFFSET -0.094060 4.144109 -0.363629
        CHANNELS 3 Zrotation Xrotation Yrotation
        JOINT Head
        {
          OFFSET -1.669729 8.401715 -5.717448
          CHANNELS 3 Zrotation Xrotation Yrotation
          End Site
          {
            OFFSET 0 0 0
          }
        }
      }
      JOINT ShoulderLeft
      {
        OFFSET -9.225807 8.640953 3.127829
        CHANNELS 3 Zrotation Xrotation Yrotation
        JOINT ElbowLeft
        {
          OFFSET -6.416485 -25.178050 -7.809294
          CHANNELS 3 Zrotation Xrotation Yrotation
          JOINT WristLeft
          {
            OFFSET 1.107366 -25.756040 -6.690951
            CHANNELS 3 Zrotation Xrotation Yrotation
            JOINT HandLeft
            {
              OFFSET 0.375016 -8.139454 -3.463005
              CHANNELS 3 Zrotation Xrotation Yrotation
              JOINT HandTipLeft
              {
                OFFSET 1.720897 -3.617191 1.507325
                CHANNELS 3 Zrotation Xrotation Yrotation
                End Site
                {
                  OFFSET 0 0 0
                }
              }
              JOINT ThumbLeft
              {
                OFFSET 3.937439 -0.476784 -1.931177
                CHANNELS 3 Zrotation Xrotation Yrotation
                End Site
                {
                  OFFSET 0 0 0
                }
              }
            }
          }
        }
      }
      JOINT ShoulderRight
      {
        OFFSET 8.076741 -2.926322 -6.250615
        CHANNELS 3 Zrotation Xrotation Yrotation
        JOINT ElbowRight
        {
          OFFSET -1.618460 -2.966804 -24.138684
          CHANNELS 3 Zrotation Xrotation Yrotation
          JOINT WristRight
          {
            OFFSET -12.290092 13.987439 1.615248
            CHANNELS 3 Zrotation Xrotation Yrotation
            JOINT HandRight
            {
              OFFSET 1.704398 1.471459 5.387086
              CHANNELS 3 Zrotation Xrotation Yrotation
              JOINT HandTipRight
              {
                OFFSET -0.409008 0.642822 2.268376
                CHANNELS 3 Zrotation Xrotation Yrotation
                End Site
                {
                  OFFSET 0 0 0
                }
              }
              JOINT ThumbRight
              {
                OFFSET -0.095958 -1.703572 1.061236
                CHANNELS 3 Zrotation Xrotation Yrotation
                End Site
                {
                  OFFSET 0 0 0
                }
              }
            }
          }
        }
      }
    }
  }
  JOINT HipLeft
  {
    OFFSET -6.800159 -1.588678 0.875689
    CHANNELS 3 Zrotation Xrotation Yrotation
    JOINT KneeLeft
    {
      OFFSET -27.722571 2.870583 -21.484297
      CHANNELS 3 Zrotation Xrotation Yrotation
      JOINT AnkleLeft
      {
        OFFSET 25.206877 -19.372092 40.273193
        CHANNELS 3 Zrotation Xrotation Yrotation
        JOINT FootLeft
        {
          OFFSET 7.002207 -4.410464 -2.039722
          CHANNELS 3 Zrotation Xrotation Yrotation
          End Site
          {
            OFFSET 0 0 0
          }
        }
      }
    }
  }
  JOINT HipRight
  {
    OFFSET 5.717333 -1.178719 -7.892953
    CHANNELS 3 Zrotation Xrotation Yrotation
    JOINT KneeRight
    {
      OFFSET -6.353124 -12.948987 -33.274771
      CHANNELS 3 Zrotation Xrotation Yrotation
      JOINT AnkleRight
      {
        OFFSET 3.371702 -19.232928 28.783112
        CHANNELS 3 Zrotation Xrotation Yrotation
        JOINT FootRight
        {
          OFFSET 3.714058 0.180023 0.486430
          CHANNELS 3 Zrotation Xrotation Yrotation
          End Site
          {
            OFFSET 0 0 0
          }
        }
      }
    }
  }
}
MOTION
Frames: 5
Frame Time: 0.033333
71.951097 43.051157 284.342906 -0.000000 0.000000 35.011671 0.000000 -0.000000 -35.011671 -0.000000 0.000000 0.000000 -0.000000 0.000000 0.000000 0.000000 0.000000 0.000000 -0.000000 0.000000 0.000000 -0.000000 0.000000 0.000000 -0.000000 0.000000 0.000000 -0.000000 0.000000 0.000000 0.000000 0.000000 0.000000 0.000000 0.000000 0.000000 -0.000000 0.000000 0.000000 -0.000000 0.000000 0.000000 -0.000000 0.000000 0.000000 -0.000000 0.000000 0.000000 0.000000 0.000000 0.000000 0.000000 0.000000 0.000000 0.000000 -0.000000 -35.011671 -0.000000 0.000000 0.000000 -0.000000 0.000000 0.000000 0.000000 0.000000 0.000000 0.000000 -0.000000 -35.011671 -0.000000 0.000000 0.000000 -0.000000 0.000000 0.000000 0.000000 0.000000 0.000000
72.087741 43.043479 284.458729 0.369050 -0.312895 32.944410 -0.139553 0.463277 -32.942838 -0.000000 0.000000 0.000000 0.395391 -1.275881 0.019733 0.000000 0.000000 0.000000 -0.000000 0.000000 0.000000 -0.000000 0.000000 0.000000 0.002308 -0.932248 -0.044069 -2.246468 0.121454 -1.263692 0.000000 0.000000 0.000000 0.000000 0.000000 0.000000 0.106585 -1.346322 -0.145450 -0.110033 1.346044 0.147995 5.438495 -12.984408 -7.939353 -7.278511 -6.514025 6.375397 0.000000 0.000000 0.000000 0.000000 0.000000 0.000000 -0.137442 0.110551 -34.293528 -0.492022 0.103034 0.502483 -2.712082 0.221788 2.445196 0.000000 0.000000 0.000000 0.229787 1.201776 -33.112063 0.574299 -0.538109 0.941588 -10.332271 1.159507 -0.783937 0.000000 0.000000 0.000000
72.184532 43.041959 284.553935 0.634454 -0.570294 31.150902 -0.247999 0.816244 -31.145978 -0.000000 0.000000 0.000000 0.706476 -2.251238 0.046511 0.000000 0.000000 0.000000 0.519194 1.064967 -0.436513 -0.107431 -1.929574 0.296934 -0.410888 -0.845480 0.071168 -4.135270 0.302950 -2.279632 0.000000 0.000000 0.000000 0.000000 0.000000 0.000000 0.186652 -2.388805 -0.254884 0.181589 3.035033 0.766138 9.162718 -29.406522 -16.705531 -9.412343 -29.742499 12.487546 0.000000 0.000000 0.000000 0.000000 0.000000 0.000000 -0.231569 0.178336 -33.604077 -0.891512 0.172620 0.916310 -3.879177 0.285221 3.849246 0.000000 0.000000 0.000000 0.399476 2.158851 -31.517336 1.025374 -0.701387 1.839481 -20.274095 2.043980 -0.178702 0.000000 0.000000 0.000000
72.241468 43.046595 284.628526 0.796122 -0.772175 29.703968 -0.308963 1.065166 -29.695732 -0.000000 0.000000 0.000000 0.931854 -2.921941 0.075658 0.000000 0.000000 0.000000 0.711484 1.439611 -0.595131 -0.211241 -2.550166 0.423166 -0.524251 -1.230867 0.090315 -5.672408 0.528027 -3.070496 0.000000 0.000000 0.000000 0.000000 0.000000 0.000000 0.242772 -3.137472 -0.330689 0.375793 3.944205 0.934563 10.760441 -44.372769 -24.636768 -1.492561 -48.210892 22.056783 0.000000 0.000000 0.000000 0.000000 0.000000 0.000000 -0.273754 0.209635 -33.018247 -1.197801 0.215329 1.240869 -4.266491 0.296346 4.616107 0.000000 0.000000 0.000000 0.549635 2.865922 -30.297239 1.347692 -0.489451 2.687045 -28.526502 2.218557 1.382854 0.000000 0.000000 0.000000
72.258551 43.057389 284.682501 0.853936 -0.918516 28.669439 -0.308693 1.215540 -28.659319 -0.000000 0.000000 0.000000 1.070328 -3.285153 0.103806 0.000000 0.000000 0.000000 0.857699 1.709585 -0.712592 -0.351662 -2.941529 0.531682 -0.577095 -1.601539 0.096666 -6.868024 0.782738 -3.657821 0.000000 0.000000 0.000000 0.000000 0.000000 0.000000 0.276699 -3.599687 -0.374482 0.641728 4.456957 0.961820 9.986993 -55.648786 -31.723444 5.232001 -49.929267 30.157513 0.000000 0.000000 0.000000 0.000000 0.000000 0.000000 -0.257568 0.209433 -32.604018 -1.410723 0.236347 1.476258 -4.101639 0.278238 4.854348 0.000000 0.000000 0.000000 0.715480 3.319245 -29.516223 1.535222 0.099047 3.479824 -34.517293 1.609442 3.296931 0.000000 0.000000 0.000000
